<?xml version="1.0" encoding="iso-8859-1"?>
<!-- Generator: Adobe Illustrator 16.0.0, SVG Export Plug-In . SVG Version: 6.00 Build 0)  -->
<!DOCTYPE svg PUBLIC "-//W3C//DTD SVG 1.1//EN" "http://www.w3.org/Graphics/SVG/1.1/DTD/svg11.dtd">
<svg xmlns="http://www.w3.org/2000/svg" xmlns:xlink="http://www.w3.org/1999/xlink" version="1.1" id="Capa_1" x="0px" y="0px" width="512px" height="512px" viewBox="0 0 688.249 688.248" style="enable-background:new 0 0 688.249 688.248;" xml:space="preserve">
<g>
	<g>
		<path d="M64.189,377.58h92.947c0.01,0,0.019,0,0.029,0c14.353-4.779,26.034-11.959,26.034-26.287    c0-14.348-11.686-26.288-26.067-26.288H64.175c-14.367,0-26.053,11.939-26.053,26.288    C38.122,365.621,49.803,372.801,64.189,377.58z M64.189,344.124h92.933c3.838,0,6.963,3.345,6.963,7.169    c0,3.818-3.121,7.17-6.963,7.17H64.218c-3.848,0-6.978-3.352-6.978-7.17S60.36,344.124,64.189,344.124z" fill="#006DF0"/>
		<path d="M157.165,516.186c14.353,0,26.034-11.969,26.034-26.301c0-14.35-11.69-26.273-26.067-26.273H64.179    c-14.367,0-26.058,11.924-26.058,26.273c0,14.332,11.681,26.301,26.067,26.301h92.947    C157.146,516.186,157.155,516.186,157.165,516.186z M64.218,497.066c-3.848,0-6.978-3.354-6.978-7.182    c0-3.82,3.121-7.156,6.949-7.156h92.938c3.838,0,6.958,3.336,6.958,7.156c0,3.822-3.121,7.182-6.963,7.182H64.218z" fill="#006DF0"/>
		<path d="M64.189,224.636h92.947c14.372,0,26.067-11.916,26.067-26.283c0-14.348-11.686-26.292-26.067-26.292H64.175    c-14.367,0-26.053,11.944-26.053,26.292C38.122,212.721,49.812,224.636,64.189,224.636z M64.189,191.18h92.933    c3.838,0,6.963,3.351,6.963,7.174c0,3.824-3.116,7.165-6.949,7.165H64.189c-3.833,0-6.949-3.341-6.949-7.165    C57.24,194.53,60.36,191.18,64.189,191.18z" fill="#006DF0"/>
		<path d="M549.174,0H175.245C124.191,0,71.803,51.169,71.803,102.219v54.176c0,5.276,6.558,10.888,11.839,10.888h71.062    c17.99,0,32.625,13.086,32.625,31.067c0,17.971-14.635,31.066-32.625,31.066H83.642c-5.277,0-11.839,6.037-11.839,11.313v66.239    c0,5.281,6.558,8.479,11.839,8.479h71.062c17.99,0,32.625,15.471,32.625,33.461c0,17.971-14.635,33.451-32.625,33.451H83.642    c-5.277,0-11.839,3.686-11.839,8.961v56.197c0,5.277,6.558,11.314,11.839,11.314h71.062c17.99,0,32.625,13.076,32.625,31.061    c0,17.98-14.635,31.072-32.625,31.072H83.642c-5.277,0-11.839,5.625-11.839,10.902v54.15c0,51.055,52.388,102.23,103.442,102.23    h373.929c51.063,0,100.952-51.176,100.952-102.23V102.219C650.122,51.169,600.233,0,549.174,0z M631.003,586.018    c0,40.641-41.185,83.111-81.834,83.111H175.245c-40.64,0-84.324-42.471-84.324-83.111v-45.936h63.787    c28.529,0,51.738-21.67,51.738-50.189c0-28.523-23.214-50.18-51.743-50.18H90.921v-38.236h63.787    c28.529,0,51.733-24.068,51.733-52.568c0.005-28.529-23.209-52.58-51.738-52.58H90.921v-47.795h63.787    c28.529,0,51.738-21.68,51.738-50.185c0-28.524-23.209-50.185-51.743-50.185H90.921v-45.945c0-40.635,43.685-83.101,84.324-83.101    h373.929c40.645,0,81.834,42.466,81.834,83.101v483.799H631.003z" fill="#006DF0"/>
		<path d="M491.442,396.555l-2.537-0.598c-3.509-1.807-53.86-25.871-72.979-34.35v-11.084c9.559-8.078,13.713-17.871,13.855-28.022    l0.588-1.042c6.453-3.842,11.528-11.576,12.943-21.221l0.205-0.598c1.606-10.83-1.696-20.667-8.039-25.929l1.229-12.202    c0.028-0.306,0.062-0.621,0.062-0.932c0-23.463-18.606-56.508-59.992-56.508c-41.396,0-60.012,33.045-60.012,56.508    c0,0.311,0.019,0.626,0.048,0.932l1.2,12.202c-6.342,5.253-9.707,15.07-8.111,25.833l0.11,0.789    c1.424,9.568,6.247,17.278,12.67,21.116l-0.401,1.051c0.144,10.166,2.825,19.969,12.384,28.032v11.031    c-23.897,11.293-67.984,32.232-72.032,34.941c-0.65,0.432-1.114,0.891-2.06,1.406c-5.979,3.289-16.719,9.41-16.719,21.857v54.844    c0,5.277,3.996,8.121,9.272,8.121h247.291c5.276,0,11.088-2.844,11.088-8.121v-54.85    C511.516,406.189,497.221,399.438,491.442,396.555z M492.398,463.611H262.696l-0.01-44.492c0.54-1.506,5.392-3.814,7.217-4.818    c1.491-0.822,2.825-1.396,3.704-1.984c4.158-2.498,48.129-23.447,75.186-36.113c3.36-1.572,4.999-4.855,4.999-8.568v-21.355    c0-2.854-0.77-5.554-2.968-7.37c-3.518-2.906-9.167-8.966-9.167-16.919c0-0.311,0.11-0.622,0.081-0.932l-0.669-7.47    c-0.459-4.698-3.795-8.269-8.512-8.522c-0.698-0.32-2.935-2.801-3.627-7.456l-0.101-0.779c-0.617-4.168,0.401-7.031,1.061-8.044    c4.512-0.765,7.948-4.693,7.948-9.425c0-0.784-0.096-1.548-0.272-2.285l-1.668-16.943c0.22-14.477,11.399-36.955,40.893-36.955    c29.485,0,40.659,22.478,40.879,36.955l-1.797,18.291c-0.268,2.687,0.617,5.354,2.428,7.351c1.42,1.568,3.312,2.61,5.363,2.987    c0.654,0.994,1.691,3.876,1.056,8.149l-0.086,0.612c-0.697,4.746-2.958,7.212-3.212,7.446c-4.717,0.253-8.545,3.91-9.004,8.613    l-0.731,7.47c-0.028,0.311-0.048,0.622-0.048,0.932c0,7.934-6.878,14.014-10.4,16.929c-2.188,1.816-4.431,4.512-4.431,7.359    v21.355c0,3.686,3.088,7.041,6.409,8.627c29.213,13.947,74.192,35.225,76.998,36.668l2.447,0.727    c7.107,3.547,9.735,5.383,9.735,6.104V463.611L492.398,463.611z" fill="#006DF0"/>
	</g>
</g>
<g>
</g>
<g>
</g>
<g>
</g>
<g>
</g>
<g>
</g>
<g>
</g>
<g>
</g>
<g>
</g>
<g>
</g>
<g>
</g>
<g>
</g>
<g>
</g>
<g>
</g>
<g>
</g>
<g>
</g>
</svg>
