<?xml version="1.0" encoding="utf-8"?>
<!-- Generator: Adobe Illustrator 21.0.0, SVG Export Plug-In . SVG Version: 6.00 Build 0)  -->
<svg version="1.1" id="Calque_1" xmlns="http://www.w3.org/2000/svg" xmlns:xlink="http://www.w3.org/1999/xlink" x="0px" y="0px"
	 viewBox="0 0 76 76" style="enable-background:new 0 0 76 76;" xml:space="preserve">
<g>
	<path d="M48.4,35.4c0.6,1,1.6,1.5,2.2,1.2c0.6-0.4,0.7-1.5,0.1-2.5L43.6,22c-0.6-1-1.6-1.6-2.2-1.2c-0.6,0.4-0.7,1.5-0.1,2.5
		L48.4,35.4z"/>
	<path d="M27.6,35.4l7-12.1c0.6-1,0.6-2.2-0.1-2.5c-0.6-0.4-1.6,0.2-2.2,1.2l-7,12.1c-0.6,1-0.6,2.2,0.1,2.5
		C26,37,27,36.5,27.6,35.4z"/>
	<path d="M52.9,34c0.3,0.8,0.4,1.7,0.2,2.5c-0.2,0.8-0.7,1.5-1.4,1.9c-0.4,0.3-0.9,0.4-1.5,0.4c-1.3,0-2.7-0.9-3.5-2.3L45.3,34h-6
		h-8.6l-1.4,2.4c-0.8,1.4-2.2,2.3-3.5,2.3c-0.5,0-1-0.1-1.5-0.4c-0.7-0.4-1.2-1-1.4-1.9c-0.2-0.8-0.1-1.6,0.2-2.5H18v5.3h2.7l5.3,16
		h13.3H50l5.3-16H58V34H52.9z M31.3,51.3c0,0.7-0.6,1.3-1.3,1.3c-0.7,0-1.3-0.6-1.3-1.3v-8c0-0.7,0.6-1.3,1.3-1.3
		c0.7,0,1.3,0.6,1.3,1.3V51.3z M36.7,51.3c0,0.7-0.6,1.3-1.3,1.3c-0.7,0-1.3-0.6-1.3-1.3v-8c0-0.7,0.6-1.3,1.3-1.3
		c0.7,0,1.3,0.6,1.3,1.3V51.3z M42,51.3c0,0.7-0.6,1.3-1.3,1.3c-0.7,0-1.3-0.6-1.3-1.3v-8c0-0.7,0.6-1.3,1.3-1.3
		c0.7,0,1.3,0.6,1.3,1.3V51.3z M47.3,51.3c0,0.7-0.6,1.3-1.3,1.3c-0.7,0-1.3-0.6-1.3-1.3v-8c0-0.7,0.6-1.3,1.3-1.3
		c0.7,0,1.3,0.6,1.3,1.3V51.3z"/>
</g>
</svg>
