<?xml version="1.0" encoding="utf-8"?>
<!-- Generator: Adobe Illustrator 21.0.0, SVG Export Plug-In . SVG Version: 6.00 Build 0)  -->
<svg version="1.1" id="Calque_1" xmlns="http://www.w3.org/2000/svg" xmlns:xlink="http://www.w3.org/1999/xlink" x="0px" y="0px"
	 viewBox="0 0 76 76" style="enable-background:new 0 0 76 76;" xml:space="preserve">
<path d="M52.3,26.7c-1.2,0.5-1.5,2.9-1.8,3.6c-0.2,0.5-1.4,0.9-1.9,1.1c-1.3-2.9-3-7.7-3-7.7l-9.4,3.8c0,0,0.5,1.9,1.2,2.2
	c0.7,0.3,3.2,0.6,3.6,1.8c0.7,1.7-1.3,4-3.9,5.1c-2.6,1-5.3,0.5-6-1.1c-0.5-1.1,0.3-3.3,0.5-4.3c0.1-1-0.2-1.7-0.2-1.7l-8.8,3.5
	l2.9,7.2c-0.3,0.1-0.8,0.2-1.5,0.1c-1-0.1-3.2-0.9-4.4-0.5c-1.7,0.7-2.2,3.3-1.2,5.9c1.1,2.6,3.4,4.5,5.1,3.8
	c1.2-0.5,1.5-2.9,1.8-3.6c0.3-0.7,2.1-1.1,2.2-1.2c1.3,2.9,3,7.6,3,7.6l9.2-3.7c0,0-0.5-1.9-1.2-2.2c-0.7-0.3-3.2-0.6-3.6-1.8
	c-0.7-1.7,1.3-4,3.9-5.1c2.6-1,5.3-0.5,6,1.1c0.5,1.1-0.3,3.3-0.5,4.3c-0.1,1,0.2,1.7,0.2,1.7l9-3.6L50.6,36
	c0.3-0.1,0.8-0.1,1.3-0.1c1,0.1,3.2,0.9,4.4,0.5c1.7-0.7,2.2-3.3,1.2-5.9C56.4,27.9,54,26,52.3,26.7z"/>
</svg>
