<?xml version="1.0" encoding="utf-8"?>
<!-- Generator: Adobe Illustrator 21.0.0, SVG Export Plug-In . SVG Version: 6.00 Build 0)  -->
<svg version="1.1" id="Layer_1" xmlns="http://www.w3.org/2000/svg" xmlns:xlink="http://www.w3.org/1999/xlink" x="0px" y="0px"
	 viewBox="0 0 218 79" style="enable-background:new 0 0 218 79;" xml:space="preserve">
<style type="text/css">
	.st0{fill:#FFFFFF;}
</style>
<g>
	<path class="st0" d="M117.2,72.3L117.2,72.3c17.8,0,32.7-14.6,32.7-32.7c0-13.5-8.3-25.2-20-30.2l0,0c-3.9-1.7-8.2-2.6-12.7-2.6
		c-1.2,0-2.3,0.1-3.4,0.2c-4,5.4-6.3,12.1-6.3,19.3c0,13.6,8.3,25.2,20,30.1c-3,2.1-6.5,3.3-10.3,3.3c-10.4,0-18.9-9-18.9-20.2
		c0-4.8,1.6-9.2,4.2-12.6c0-5.1,1.8-14.4,4.5-18.5c-13.1,4.4-22.5,16.9-22.5,31.2C84.5,57.7,99.4,72.3,117.2,72.3 M121.3,26.3
		c0-2.1,0.3-4.2,0.9-6.1c8,2.3,13.9,10.1,13.9,19.4c0,2.1-0.3,4.2-0.9,6.2C127.2,43.3,121.3,35.6,121.3,26.3"/>
	<g>
		<path class="st0" d="M11,7.6h11.5l10.7,42.6L43.6,7.6h8.2l10.2,42.6L72.8,7.6h11.7L66.7,68.6h-9l-9.8-40.3L37.8,68.6h-8.9L11,7.6z
			"/>
		<path class="st0" d="M158.3,68.6v-61h13.9c9.6,0,16.8,1.5,21.6,4.4c4.2,2.5,7.5,6.1,9.8,10.7s3.5,9.8,3.5,15.5
			c0,6.2-1.3,11.6-4,16.4c-2.6,4.8-6.3,8.3-11,10.6c-4.5,2.3-11.1,3.4-19.7,3.4H158.3z M169.6,57.7h2.5c6.7,0,11.6-0.9,14.8-2.7
			c2.7-1.5,4.8-3.7,6.4-6.8c1.6-3,2.4-6.4,2.4-10.1c0-3.9-0.8-7.4-2.5-10.5c-1.6-3.1-3.9-5.4-6.8-6.8c-3.2-1.6-8.1-2.5-14.6-2.5
			h-2.2L169.6,57.7L169.6,57.7z"/>
	</g>
</g>
</svg>
