<?xml version="1.0" encoding="utf-8"?>
<!-- Generator: Adobe Illustrator 21.0.0, SVG Export Plug-In . SVG Version: 6.00 Build 0)  -->
<svg version="1.1" id="Layer_1" xmlns="http://www.w3.org/2000/svg" xmlns:xlink="http://www.w3.org/1999/xlink" x="0px" y="0px"
	 viewBox="0 0 654.8 263.6" style="enable-background:new 0 0 654.8 263.6;" xml:space="preserve">
<style type="text/css">
	.st0{fill:none;}
	.st1{fill:#FFFFFF;}
</style>
<rect class="st0" width="654.8" height="263.6"/>
<path class="st1" d="M365.8,63.2h-9.5v24.1c-3.8-3.4-8.4-5.4-16.4-5.4c-13.4,0-26.8,8.9-26.8,33.5c0,7.6,1.5,13.9,4.1,18.7
	c-1.9,0.5-3.9,0.9-6,0.9c-5.4,0-8-1.8-8-8v-16.1h0v-38c0-8.4-1-9.8-6.8-9.8h-9.4v47.9v16.2v1.9c0,14.1,6.8,17.6,15.9,17.6
	c7,0,14.2-2.4,19.8-5.7c4.3,3.8,9.7,5.7,15.7,5.7c8.3,0,14.4-3.5,18.4-8c0.7,5.9,2.3,7.2,5,7.2h11V73.1
	C372.7,64.8,371.7,63.2,365.8,63.2 M356.3,129.1c-4.4,3.7-7.9,5.5-13,5.5c-8.4,0-12.5-5.5-12.5-19.9c0-15.7,7.3-19.3,14.5-19.3
	c4.8,0,8.3,1.1,11,3.1V129.1z"/>
<path class="st1" d="M260,90.6c-0.6-6.2-2.4-7.1-5.4-7.1h-10.9V146h16.6v-45.4c3.4-1.8,9.5-3.7,18.1-3.7h3V83.1
	c-1.2-0.4-2.5-0.6-3.8-0.6C269.8,82.5,264,86.4,260,90.6"/>
<path class="st1" d="M423.2,80.1c5.3,0,9.5-4.1,9.5-9.2c0-5.2-4.2-9.4-9.5-9.4c-5.3,0-9.6,4.2-9.6,9.4C413.7,76,418,80.1,423.2,80.1
	"/>
<path class="st1" d="M206.7,147.5L206.7,147.5c17.8,0,32.7-14.6,32.7-32.7c0-13.5-8.3-25.2-20-30.2h0c-3.9-1.7-8.2-2.6-12.7-2.6
	c-1.2,0-2.3,0.1-3.4,0.2c-4,5.4-6.3,12.1-6.3,19.3c0,13.6,8.3,25.2,20,30.1c-3,2.1-6.5,3.3-10.3,3.3c-10.4,0-18.9-9-18.9-20.2
	c0-4.8,1.6-9.2,4.2-12.6c0-5.1,1.8-14.4,4.5-18.5C183.4,88,174,100.5,174,114.8C174,133,188.9,147.5,206.7,147.5 M210.8,101.6
	c0-2.1,0.3-4.2,0.9-6.1c8,2.3,13.9,10.1,13.9,19.4c0,2.1-0.3,4.2-0.9,6.2C216.7,118.6,210.8,110.9,210.8,101.6"/>
<path class="st1" d="M571.2,113.2c0-20.7-9.8-30.9-28.3-30.9c-17.5,0-30.7,12.4-30.7,32.7c0,7.6,1.7,14.1,4.9,19.2
	c-2.2,0.7-4.5,1.2-7,1.2c-4.7,0-7.3-1.4-7.8-5.8V99.4c0-14.1-7.8-17.6-16.9-17.6c-8.4,0-15.9,3.6-21.8,7.9c-0.7-5.4-2.4-6.1-5.4-6.1
	h-10.9V132c-2.4,0.8-5.1,1.5-7.8,1.5c-5.3,0-7.9-1.8-8-7.8V95c0-9.6-0.8-11.5-6.6-11.5h-9.7v25.8v18.1v0.3v6.1
	c-2.5,0.8-5.2,1.6-8.1,1.6c-5.4,0-8-1.8-8-8l0-54.3c0-8.4-1-9.8-6.8-9.8H383v48.1v16v2.2c0,14.1,6.8,17.6,15.9,17.6
	c7.3,0,14.7-2.5,20.4-6c2.9,3.1,7.1,4.1,11.9,4.1c5.6,0,11.3-1.5,16.2-3.8v4.6h16.5V98.9c4-1.4,8.9-2.9,14.3-2.9
	c5.4,0,7.8,1.8,7.8,8v7.2h0v18.2c0,14.1,6.8,17.6,15.9,17.6c7.6,0,15.3-2.7,21.1-6.5c5.2,4.2,12.4,6.5,21.3,6.5
	c12.6,0,19.6-3.2,24.7-6.1v-11.5h-5.4c-4.1,3-9.6,5.3-16.7,5.3c-9.7,0-15.7-3.5-16.5-16.1H571C571,118,571.2,115.4,571.2,113.2
	 M530.5,108.1c1.3-11.7,6.3-14.7,12.5-14.7c6.8,0,10.7,3.6,11,14.7H530.5z"/>
<path class="st1" d="M90.2,96.9l14.1,49.4h13.8l11.9-40.3l11.8,40.3h13.8L170,97c0.5-1.8,1.7-2.7,3.3-2.7h3.6V83.6h-26.6v10.7h4.3
	c0.9,0,2,0.1,2.4,0.7c0.3,0.4,0.6,1.5-0.2,4.1l-7,25.6l-11.9-41h-12.8l-11.8,41L105,94.3h6.4V83.6H83.6v10.7h3.9
	C88.6,94.3,89.8,95.4,90.2,96.9"/>
<path class="st1" d="M93,178.8c-2.1,0-3.8-1-3.8-3.5c0-2.4,2.1-3.4,4.9-3.4c1.5,0,2.9,0.2,4.1,0.5v3.9
	C96.9,177.7,95.5,178.8,93,178.8 M94.3,163.8c-2.6,0-4.3,0.7-5.6,1.4v1.2h0.6c1-0.8,2.6-1.4,4.9-1.4c2.3,0,3.9,0.9,3.9,3.3v2.9
	c-1.3-0.3-2.6-0.5-4.2-0.5c-3.7,0-6.3,1.5-6.3,4.6c0,3,2.2,4.6,5.1,4.6c2.6,0,4.1-0.9,5.4-2.3v0.6c0,1.3,0.2,1.5,1.1,1.5h0.4v-11.5
	C99.7,165,97.6,163.8,94.3,163.8"/>
<path class="st1" d="M111.8,163.8c-2.8,0-5.2,1.3-7,2.7v-0.9c0-1.4-0.2-1.6-0.8-1.6h-0.7v15.8h1.5v-12.1c1.8-1.4,4-2.7,6.4-2.7
	c1.8,0,3.2,0.6,3.2,3.1v11.6h1.5V168C115.9,164.7,114,163.8,111.8,163.8"/>
<path class="st1" d="M130.2,178.8c-2.1,0-3.8-1-3.8-3.5c0-2.4,2.1-3.4,4.9-3.4c1.5,0,2.9,0.2,4.1,0.5v3.9
	C134.2,177.7,132.8,178.8,130.2,178.8 M131.6,163.8c-2.6,0-4.3,0.7-5.6,1.4v1.2h0.6c1-0.8,2.6-1.4,4.9-1.4c2.3,0,3.9,0.9,3.9,3.3
	v2.9c-1.3-0.3-2.6-0.5-4.2-0.5c-3.7,0-6.3,1.5-6.3,4.6c0,3,2.2,4.6,5.1,4.6c2.6,0,4.1-0.9,5.4-2.3v0.6c0,1.3,0.2,1.5,1.1,1.5h0.4
	v-11.5C136.9,165,134.8,163.8,131.6,163.8"/>
<path class="st1" d="M142.4,159.6h-1.5v4.4h-2.1v1.2h2.1v11.2c0,2.5,1.3,3.6,3.7,3.6c0.9,0,1.9-0.1,2.3-0.2v-1.1h-1.8
	c-1.9,0-2.7-0.6-2.7-2.5v-11.1h4.2V164h-4.2V159.6"/>
<path class="st1" d="M155.2,178.7c-3.6,0-5.8-2.5-5.8-6.9c0-4.3,2.2-6.9,5.8-6.9c3.6,0,5.8,2.6,5.8,6.9
	C161,176.2,158.8,178.7,155.2,178.7 M155.2,163.8c-4.4,0-7.3,3.1-7.3,8.1c0,5,3,8,7.3,8c4.4,0,7.4-3,7.4-8
	C162.5,166.9,159.6,163.8,155.2,163.8"/>
<path class="st1" d="M169.5,163.8c-3.2,0-5.3,1.5-5.3,4.2c0,2.7,1.9,3.7,4.9,4.2c3.2,0.5,4.3,1.3,4.3,3.1c0,2.2-1.4,3.4-4.3,3.4
	c-2.3,0-3.7-0.8-4.4-1.5H164v1.2c0.9,0.7,2.4,1.5,5.1,1.5c3.9,0,5.7-1.8,5.7-4.7c0-2.8-1.8-3.8-5.1-4.3c-3.1-0.5-4.1-1.2-4.1-3
	c0-1.9,1.3-2.9,3.9-2.9c2,0,3.1,0.5,3.9,1.2h0.6V165C173.2,164.4,171.8,163.8,169.5,163.8"/>
<path class="st1" d="M190.5,163.8c-4.4,0-7.5,3-7.5,8c0,5,2.8,8.1,7.4,8.1c2.7,0,4.4-1,5.3-1.9v-1.2H195c-0.7,0.8-2.1,1.8-4.6,1.8
	c-3.7,0-5.9-2.5-5.9-6.9c0-4.3,2.4-6.8,5.9-6.8c2.2,0,3.5,0.8,4.2,1.5h0.8v-1.2C194.5,164.6,193.1,163.8,190.5,163.8"/>
<path class="st1" d="M204.3,178.7c-3.6,0-5.8-2.5-5.8-6.9c0-4.3,2.2-6.9,5.8-6.9c3.6,0,5.8,2.6,5.8,6.9
	C210.1,176.2,207.9,178.7,204.3,178.7 M204.3,163.8c-4.4,0-7.3,3.1-7.3,8.1c0,5,3,8,7.3,8c4.4,0,7.4-3,7.4-8
	C211.7,166.9,208.7,163.8,204.3,163.8"/>
<path class="st1" d="M232.2,163.8c-2.6,0-4.8,1.2-6.4,2.6c-0.5-1.9-2.1-2.6-3.8-2.6c-2.6,0-4.8,1.4-6.3,2.6v-0.8
	c0-1.4-0.2-1.6-0.8-1.6h-0.7v15.8h1.5v-12.1c1.6-1.4,3.5-2.6,5.8-2.6c1.7,0,2.9,0.7,2.9,3v11.7h1.5v-12.2c1.6-1.3,3.5-2.5,5.7-2.5
	c1.8,0,2.9,0.7,2.9,3v11.7h1.5v-12.1C236.2,164.9,234.4,163.8,232.2,163.8"/>
<path class="st1" d="M246.3,178.6c-2.3,0-3.8-0.7-5-2.1v-8.2c1.4-1.6,3.2-3.2,5.8-3.2c2.2,0,4.8,1.3,4.8,6.7
	C251.8,177.2,248.9,178.6,246.3,178.6 M247.3,163.8c-2.8,0-4.8,1.5-6,3v-1.2c0-1.4-0.2-1.6-0.8-1.6h-0.7v20.7h1.5V178
	c1.2,1.1,2.8,1.9,5.3,1.9c3.3,0,6.8-1.9,6.8-8.2C253.4,165.6,250.3,163.8,247.3,163.8"/>
<path class="st1" d="M260,178.8c-2.1,0-3.8-1-3.8-3.5c0-2.4,2.1-3.4,4.9-3.4c1.5,0,2.9,0.2,4.1,0.5v3.9
	C263.9,177.7,262.5,178.8,260,178.8 M261.4,163.8c-2.6,0-4.3,0.7-5.6,1.4v1.2h0.6c1-0.8,2.6-1.4,4.9-1.4c2.3,0,3.9,0.9,3.9,3.3v2.9
	c-1.3-0.3-2.6-0.5-4.2-0.5c-3.7,0-6.3,1.5-6.3,4.6c0,3,2.2,4.6,5.1,4.6c2.6,0,4.1-0.9,5.4-2.3v0.6c0,1.3,0.2,1.5,1.1,1.5h0.4v-11.5
	C266.7,165,264.6,163.8,261.4,163.8"/>
<path class="st1" d="M278.8,163.8c-2.8,0-5.2,1.3-7,2.7v-0.9c0-1.4-0.2-1.6-0.8-1.6h-0.7v15.8h1.5v-12.1c1.8-1.4,4-2.7,6.4-2.7
	c1.8,0,3.2,0.6,3.2,3.1v11.6h1.5V168C282.9,164.7,281,163.8,278.8,163.8"/>
<polygon class="st1" points="298.9,164 297.5,164 292.2,176.9 292.1,176.9 286.5,164 285.1,164 285.1,164.4 291.4,178.7 289,184.2 
	289,184.7 290.4,184.7 298.9,164.4 "/>
</svg>
